<svg xmlns="http://www.w3.org/2000/svg" viewBox="0 0 200 200" width="200" height="200" role="img" aria-label="Smart City Thailand logo">
  <!-- Neutral tile mark for the national dashboard brand. -->
  <rect width="200" height="200" rx="42" ry="42" fill="#2B3044"/>

  <rect x="68" y="20" width="44" height="44" rx="8" fill="#2563EB"/>
  <rect x="120" y="20" width="44" height="44" rx="8" fill="#E8E8EA"/>

  <rect x="16" y="72" width="44" height="44" rx="8" fill="#E8E8EA"/>
  <rect x="120" y="72" width="44" height="44" rx="8" fill="#E8E8EA"/>

  <rect x="68" y="124" width="44" height="44" rx="8" fill="#E8E8EA"/>
  <rect x="120" y="124" width="44" height="22" rx="8" fill="#E8E8EA"/>
  <rect x="120" y="146" width="44" height="22" rx="0" fill="#DC2626"/>
  <rect x="120" y="160" width="44" height="8" rx="0" fill="#DC2626"/>
  <rect x="120" y="156" width="44" height="12" rx="0" fill="#DC2626"/>
  <path d="M120 156 h44 v12 q0 8 -8 8 h-28 q-8 0 -8 -8 z" fill="#DC2626"/>

  <rect x="16" y="148" width="44" height="44" rx="8" fill="#E8E8EA"/>
</svg>
